<svg xmlns="http://www.w3.org/2000/svg" width="294.5" height="89.2" viewBox="0 0 294.5 89.2">
  <title>icons</title>
  <g>
    <path d="M10,23V9h2V23Z" transform="translate(-8.7 -4)"/>
    <path d="M12,10s3-1,5,1,5,1,5,1v8s-3,1-5-1-5-1-5-1Z" transform="translate(-8.7 -4)"/>
    <path d="M42,9h4V23H42Z" transform="translate(-8.7 -4)"/>
    <path d="M49,9h4V23H49Z" transform="translate(-8.7 -4)"/>
    <path d="M109,23h6l4-4V13l-4-4h-6l-4,4v6Z" transform="translate(-8.7 -4)"/>
    <path d="M74,9l12,7L74,23Z" transform="translate(-8.7 -4)"/>
    <path d="M169,9h7v2h-5V21h10V16h2v7H169Z" transform="translate(-8.7 -4)"/>
    <path d="M175,15.5l4.5-4.5-2-2H183v5.5l-2-2L176.5,17H175Z" transform="translate(-8.7 -4)"/>
    <path d="M151,9v5.5l-2-2L146.5,15l-.7-.7-.8-.8,2.5-2.5-2-2Z" transform="translate(-8.7 -4)"/>
    <path d="M137,9h5.5l-2,2,2.5,2.5L141.5,15,139,12.5l-2,2Z" transform="translate(-8.7 -4)"/>
    <path d="M137,23V17.5l2,2,2.5-2.5,1.5,1.5L140.5,21l2,2Z" transform="translate(-8.7 -4)"/>
    <path d="M151,23h-5.5l2-2L145,18.5l.7-.7.8-.8,2.5,2.5,2-2Z" transform="translate(-8.7 -4)"/>
    <path d="M10,55V41h2V55Z" transform="translate(-8.7 -4)" style="fill: #fff"/>
    <path d="M12,42s3-1,5,1,5,1,5,1v8s-3,1-5-1-5-1-5-1Z" transform="translate(-8.7 -4)" style="fill: #fff"/>
    <path d="M42,41h4V55H42Z" transform="translate(-8.7 -4)" style="fill: #fff"/>
    <path d="M49,41h4V55H49Z" transform="translate(-8.7 -4)" style="fill: #fff"/>
    <path d="M109,55h6l4-4V45l-4-4h-6l-4,4v6Z" transform="translate(-8.7 -4)" style="fill: #fff"/>
    <path d="M74,41l12,7L74,55Z" transform="translate(-8.7 -4)" style="fill: #fff"/>
    <path d="M145,47V41.5l2,2,2.5-2.5.7.7.8.8L148.5,45l2,2Z" transform="translate(-8.7 -4)" style="fill: #fff"/>
    <path d="M143,47h-5.5l2-2L137,42.5l1.5-1.5,2.5,2.5,2-2Z" transform="translate(-8.7 -4)" style="fill: #fff"/>
    <path d="M143,49v5.5l-2-2L138.5,55,137,53.5l2.5-2.5-2-2Z" transform="translate(-8.7 -4)" style="fill: #fff"/>
    <path d="M145,49h5.5l-2,2,2.5,2.5-.7.7-.8.8L147,52.5l-2,2Z" transform="translate(-8.7 -4)" style="fill: #fff"/>
    <path d="M186,78.5a10,10,0,1,1-10-10A10,10,0,0,1,186,78.5Z" transform="translate(-8.7 -4)" style="fill: #2eaedf"/>
    <path d="M170.5,80.5l4,4,7-7v-4l-7,7-2-2Z" transform="translate(-8.7 -4)" style="fill: #fff"/>
    <path d="M204,4l-6.2,15.6c-1.2,2.8.2,3.6,2.8,2.6L239,7V4L201,19l6-15Z" transform="translate(-8.7 -4)" style="fill: #a0a0a0"/>
    <path d="M201,19l6-15h32Z" transform="translate(-8.7 -4)" style="fill: #fff"/>
    <path d="M231,36l6.2,15.6c1.2,2.8-.2,3.6-2.8,2.6L196,39V36l38,15-6-15Z" transform="translate(-8.7 -4)" style="fill: #a0a0a0"/>
    <path d="M234,51l-6-15H196Z" transform="translate(-8.7 -4)" style="fill: #fff"/>
    <path d="M268.4,21.6c0,1.1-1.6,2-3.5,2s-3.5-.9-3.5-2,1.6-2,3.5-2S268.4,20.5,268.4,21.6Z" transform="translate(-8.7 -4)" style="fill: #fff;stroke: #a0a0a0;stroke-width: 1.195099949836731px"/>
    <path d="M275.9,17.5c0,1.1-1.9,2.1-4.2,2.1s-4.2-.9-4.2-2.1,1.9-2.1,4.2-2.1S275.9,16.4,275.9,17.5Z" transform="translate(-8.7 -4)" style="fill: #fff;stroke: #a0a0a0;stroke-width: 1.4608999490737915px"/>
    <path d="M283,11c0,1.7-2.5,3.1-5.5,3.1S272,12.7,272,11s2.5-3.1,5.5-3.1S283,9.3,283,11Z" transform="translate(-8.7 -4)" style="fill: #fff;stroke: #a0a0a0;stroke-width: 1.399999976158142px"/>
    <path d="M295.6,53.6c0,1.1,1.6,2,3.5,2s3.5-.9,3.5-2-1.6-2-3.5-2S295.6,52.5,295.6,53.6Z" transform="translate(-8.7 -4)" style="fill: #fff;stroke: #a0a0a0;stroke-width: 1.195099949836731px"/>
    <path d="M288.1,49.6c0,1.1,1.9,2.1,4.2,2.1s4.2-.9,4.2-2.1-1.9-2.1-4.2-2.1S288.1,48.4,288.1,49.6Z" transform="translate(-8.7 -4)" style="fill: #fff;stroke: #a0a0a0;stroke-width: 1.4608999490737915px"/>
    <path d="M281,43c0,1.7,2.5,3.1,5.5,3.1S292,44.7,292,43s-2.5-3.1-5.5-3.1S281,41.3,281,43Z" transform="translate(-8.7 -4)" style="fill: #fff;stroke: #a0a0a0;stroke-width: 1.399999976158142px"/>
    <path d="M151,73v5.5l-2-2L146.5,79l-.7-.7-.8-.8,2.5-2.5-2-2Z" transform="translate(-8.7 -4)" style="fill: #fff"/>
    <path d="M137,73h5.5l-2,2,2.5,2.5L141.5,79,139,76.5l-2,2Z" transform="translate(-8.7 -4)" style="fill: #fff"/>
    <path d="M137,87V81.5l2,2,2.5-2.5,1.5,1.5L140.5,85l2,2Z" transform="translate(-8.7 -4)" style="fill: #fff"/>
    <path d="M151,87h-5.5l2-2L145,82.5l.7-.7.8-.8,2.5,2.5,2-2Z" transform="translate(-8.7 -4)" style="fill: #fff"/>
    <g>
      <path d="M12,72.7H22A3.3,3.3,0,0,1,25.3,76V86A3.3,3.3,0,0,1,22,89.3H12A3.3,3.3,0,0,1,8.7,86V76A3.3,3.3,0,0,1,12,72.7Z" transform="translate(-8.7 -4)" style="fill: #3f3f3f"/>
      <text transform="translate(4 83)" style="isolation: isolate;font-size: 16.579299926757812px;fill: #fff;font-family: Arial-BoldMT, Arial;font-weight: 700">2</text>
    </g>
    <g>
      <path d="M41,72.7H51A3.3,3.3,0,0,1,54.3,76V86A3.3,3.3,0,0,1,51,89.3H41A3.3,3.3,0,0,1,37.7,86V76A3.3,3.3,0,0,1,41,72.7Z" transform="translate(-8.7 -4)" style="fill: #3f3f3f"/>
      <text transform="translate(33 83)" style="isolation: isolate;font-size: 16.579299926757812px;fill: #fff;font-family: Arial-BoldMT, Arial;font-weight: 700">3</text>
    </g>
    <g>
      <rect x="60.5" y="82.2" width="16" height="2"/>
      <polygon points="73 75.2 68.5 80.8 64 75.2 67 75.2 67 68.2 70 68.2 70 75.2 73 75.2"/>
    </g>
    <path d="M169,41h7v2h-5V53h10V48h2v7H169Z" transform="translate(-8.7 -4)"/>
    <path d="M175,47.5l4.5-4.5-2-2H183v5.5l-2-2L176.5,49H175Z" transform="translate(-8.7 -4)"/>
    <path d="M122.4,85.1h-1.5V81.5a.6.6,0,0,0-1.3,0v3.6H116a.6.6,0,1,0,0,1.3h3.6v1.5a.6.6,0,0,0,1.3,0V86.4h1.5a.6.6,0,1,0,0-1.3Z" transform="translate(-8.7 -4)"/>
    <path d="M111.8,72.4h-4.2a.6.6,0,0,0-.6.6v4.2a.6.6,0,0,0,1.3,0V73.7h3.6a.6.6,0,0,0,0-1.3Z" transform="translate(-8.7 -4)"/>
    <path d="M120.3,72.4H116a.6.6,0,1,0,0,1.3h3.6v3.6a.6.6,0,0,0,1.3,0V73A.6.6,0,0,0,120.3,72.4Z" transform="translate(-8.7 -4)"/>
    <path d="M111.8,85.1h-3.6V81.5a.6.6,0,0,0-1.3,0v4.2a.6.6,0,0,0,.6.6h4.2a.6.6,0,1,0,0-1.3Z" transform="translate(-8.7 -4)"/>
    <path d="M107.5,78.4a.6.6,0,0,0-.6.6v.6a.6.6,0,0,0,1.3,0v-.6A.6.6,0,0,0,107.5,78.4Z" transform="translate(-8.7 -4)"/>
    <path d="M120.3,78.4a.6.6,0,0,0-.6.6v.6a.6.6,0,1,0,1.3,0v-.6A.6.6,0,0,0,120.3,78.4Z" transform="translate(-8.7 -4)"/>
    <path d="M114.2,72.4h-.6a.6.6,0,0,0,0,1.3h.6a.6.6,0,0,0,0-1.3Z" transform="translate(-8.7 -4)"/>
    <path d="M114.2,85.1h-.6a.6.6,0,0,0,0,1.3h.6a.6.6,0,0,0,0-1.3Z" transform="translate(-8.7 -4)"/>
  </g>
</svg>
